<svg width="26" height="8" viewBox="0 0 26 8" fill="none" xmlns="http://www.w3.org/2000/svg">
<path fill-rule="evenodd" clip-rule="evenodd" d="M7.57975 0H6.42508L5.56419 1.99471L4.64027 0H3.50646V2.77159L2.30963 0H1.25984L0 2.93963H0.755874L1.02879 2.28863H2.49853L2.77144 2.93963H4.19932V0.629997L5.22811 2.93963H5.83695L6.86588 0.629997V2.93963H7.57975V0ZM23.2437 2.93963H22.236L20.9132 0.734869V2.93963H19.4856L19.2124 2.28863H17.7427L17.4697 2.93963H16.6507C16.3148 2.93963 15.8738 2.85561 15.6221 2.60355C15.391 2.35164 15.265 2.01572 15.265 1.49074C15.265 1.04979 15.328 0.65085 15.6428 0.335927C15.8527 0.104873 16.2308 0 16.7136 0H17.3854V0.629997H16.7136C16.4618 0.629997 16.3146 0.672007 16.1677 0.798037C16.0417 0.924066 15.9787 1.15497 15.9787 1.46989C15.9787 1.78481 16.0417 2.01587 16.1677 2.1629C16.2726 2.26778 16.4618 2.30979 16.6505 2.30979H16.9656L17.9734 0.00015221H19.0233L20.1992 2.77174V0H21.2911L22.53 2.03672V0H23.2437V2.93963ZM22.236 6.44624C22.068 6.29905 21.8159 6.21519 21.417 6.21519H21.0392C20.9358 6.21519 20.8526 6.19463 20.7699 6.17422L20.7663 6.17333C20.6821 6.13117 20.6194 6.06815 20.6194 5.96313C20.6194 5.8581 20.6403 5.79509 20.7243 5.73207C20.7873 5.69021 20.8712 5.69021 20.9972 5.69021H22.2991V5.06022H20.8923C20.1363 5.06022 19.8842 5.52217 19.8842 5.94227C19.8842 6.80685 20.6019 6.82543 21.2277 6.84163C21.2704 6.84274 21.3127 6.84383 21.3543 6.84518C21.48 6.84518 21.5642 6.86604 21.606 6.9082C21.6479 6.95006 21.6902 7.03392 21.6902 7.1181C21.6902 7.20196 21.6481 7.26498 21.606 7.30714C21.543 7.349 21.4592 7.36985 21.3331 7.36985H19.9683V7.99985H21.3331C22.0468 7.99985 22.4459 7.70608 22.4459 7.07624C22.4459 6.78232 22.3621 6.59312 22.236 6.44624ZM25.1967 7.07624C25.1967 7.70623 24.7977 7.99985 24.0837 7.99985H22.7192V7.36985H24.0837C24.2097 7.36985 24.3148 7.349 24.3569 7.30714C24.3988 7.26498 24.4408 7.20196 24.4408 7.1181C24.4408 7.03392 24.3989 6.95006 24.3569 6.9082C24.3148 6.86604 24.2309 6.84518 24.1049 6.84518C24.0632 6.84383 24.0208 6.84273 23.9781 6.84163C23.3526 6.82545 22.6351 6.80688 22.6351 5.94227C22.6351 5.52217 22.908 5.06022 23.6429 5.06022H25.0496V5.69021H23.7478C23.6221 5.69021 23.5379 5.69021 23.4749 5.73207C23.4119 5.79509 23.37 5.8581 23.37 5.96313C23.37 6.06815 23.433 6.13117 23.5169 6.17333L23.5187 6.17378C23.6023 6.19448 23.6858 6.21519 23.7901 6.21519H24.1679C24.5668 6.21519 24.8189 6.29905 24.9869 6.44624C25.1127 6.59312 25.1967 6.78232 25.1967 7.07624ZM17.8898 7.39116H19.5483V8H17.1968V5.06052H19.5483V5.66936H17.8898V6.21549H19.5065V6.80317H17.8898V7.39116ZM16.4408 5.20756C16.2097 5.08153 15.9368 5.06037 15.5799 5.06037H13.9633V7.99985H14.677V6.92905H15.433C15.6848 6.92905 15.832 6.95021 15.937 7.05508C16.063 7.20196 16.063 7.45402 16.063 7.64307V7.99985H16.7557V7.43287C16.7557 7.15995 16.7349 7.03392 16.6509 6.88704C16.5878 6.80287 16.4621 6.698 16.2941 6.63498C16.4828 6.57227 16.798 6.32021 16.798 5.8581C16.7979 5.52233 16.6719 5.33328 16.4408 5.20756ZM10.2046 5.06037H12.4514C12.9974 5.06037 13.6274 5.22841 13.6275 6.02629C13.6275 6.84518 13.0184 7.01322 12.4095 7.01322H11.5276V7.99985H10.1628L9.30185 7.03392L8.39894 7.99985H5.60619V5.06037H8.4408L9.3017 6.02629L10.2046 5.06037ZM15.8738 6.27835C15.7689 6.32021 15.6639 6.32021 15.5379 6.32021L14.677 6.34137V5.66921H15.5379C15.6639 5.66921 15.79 5.66921 15.8738 5.73222C15.958 5.77439 16.0207 5.85825 16.0207 5.98428C16.0207 6.11031 15.958 6.21534 15.8738 6.27835ZM11.5275 6.42524H12.4514C12.7033 6.42524 12.8713 6.27835 12.8713 6.02629C12.8713 5.77439 12.7034 5.66921 12.4514 5.66921H11.5275V6.42524ZM9.74265 6.53011L10.8345 5.37544V7.74809L9.74265 6.53011ZM6.29905 7.39116H8.04186L8.83974 6.53026L8.06286 5.66936H6.29905V6.21549H7.85281V6.80317H6.29905V7.39116ZM14.1943 0H14.908V2.93963H14.1943V0ZM13.4172 0.12603C13.1861 0 12.9343 0 12.5774 0H10.9605V2.93963H11.6533V1.86868H12.4092C12.6613 1.86868 12.8293 1.88969 12.9342 1.99471C13.045 2.12403 13.042 2.3346 13.0397 2.49769V2.49777C13.0394 2.52007 13.0391 2.54149 13.0391 2.56169V2.93963H13.7528V2.35164C13.7528 2.09974 13.7319 1.97371 13.627 1.82667C13.564 1.74265 13.438 1.63763 13.2911 1.57476C13.4799 1.49074 13.7951 1.25984 13.7951 0.797884C13.7952 0.461957 13.6481 0.272912 13.4172 0.12603ZM8.81874 2.33079H10.4565V2.93978H8.10487V0.00015221H10.4565V0.608992H8.81874V1.13396H10.4355V1.7428H8.81874V2.33079ZM18.4775 0.503967L18.9606 1.65878H17.9947L18.4775 0.503967ZM12.8713 1.19698C12.7665 1.25999 12.6614 1.25999 12.5144 1.25999H11.6533V0.609144H12.5142C12.6403 0.609144 12.787 0.609144 12.8712 0.651154C12.955 0.714169 12.9972 0.798189 12.9972 0.924066C12.9972 1.04994 12.9552 1.15482 12.8713 1.19698ZM1.76366 0.503967L1.28069 1.65878H2.24662L1.76366 0.503967Z" fill="#0077A6"/>
</svg>
